<svg width="45" height="46" viewBox="0 0 45 46" fill="none" xmlns="http://www.w3.org/2000/svg">
<path d="M40.0203 9.49323C41.075 10.8751 41.9678 12.3763 42.6807 13.9668L22.4576 29.075L14.0059 23.7056V17.246L22.4576 22.6154L40.0203 9.49323Z" fill="#21A038"/>
<path d="M5.38093 23.2493C5.38093 22.9594 5.38791 22.6715 5.40185 22.3852L0.279848 22.1309C0.262415 22.5019 0.251959 22.8765 0.251959 23.2545C0.24978 26.2084 0.82308 29.1336 1.93899 31.8623C3.05488 34.5911 4.69142 37.0697 6.7547 39.156L10.3879 35.4757C8.79962 33.8726 7.53966 31.9671 6.6804 29.8689C5.82114 27.7707 5.37953 25.521 5.38093 23.2493Z" fill="url(#paint0_linear_117_28557)"/>
<path d="M22.4549 5.94771C22.7408 5.94771 23.0249 5.95832 23.3073 5.97245L23.5636 0.779753C23.1964 0.762085 22.8268 0.753252 22.4549 0.753252C19.5388 0.749648 16.651 1.32982 13.9569 2.46047C11.2628 3.59111 8.81561 5.24996 6.75586 7.34175L10.389 11.0238C11.9709 9.41366 13.8513 8.13628 15.922 7.26515C17.9927 6.39402 20.2128 5.94628 22.4549 5.94771Z" fill="url(#paint1_linear_117_28557)"/>
<path d="M22.4523 40.5528C22.1664 40.5528 21.8822 40.5528 21.5981 40.5298L21.3418 45.7207C21.7102 45.7396 22.0804 45.7491 22.4523 45.7491C25.3671 45.7521 28.2536 45.1716 30.9462 44.0406C33.6389 42.9096 36.0845 41.2505 38.1427 39.1588L34.5165 35.4785C32.9343 37.0878 31.0541 38.3645 28.9838 39.2353C26.9135 40.1061 24.6938 40.5539 22.4523 40.5528Z" fill="url(#paint2_linear_117_28557)"/>
<path d="M32.0758 8.96577L36.3923 5.74131C32.4469 2.50354 27.5221 0.741012 22.4453 0.750034V5.94626C25.883 5.94194 29.241 6.99482 32.0758 8.96577Z" fill="url(#paint3_linear_117_28557)"/>
<path d="M44.6596 23.2494C44.6623 21.8977 44.5457 20.5482 44.3108 19.2175L39.5323 22.7865C39.5323 22.9403 39.5323 23.094 39.5323 23.2494C39.5336 25.6669 39.0335 28.0578 38.0647 30.2669C37.0958 32.476 35.6797 34.4541 33.9082 36.073L37.3549 39.9336C39.6579 37.8265 41.4983 35.2524 42.7567 32.3783C44.0152 29.504 44.6634 26.3939 44.6596 23.2494Z" fill="#21A038"/>
<path d="M22.4567 40.5536C20.0711 40.5544 17.712 40.0474 15.5319 39.0656C13.3519 38.0838 11.3997 36.6488 9.80164 34.8538L5.99414 38.345C8.07303 40.6794 10.6128 42.5449 13.4489 43.8206C16.285 45.0961 19.3539 45.7534 22.4567 45.7497V40.5536Z" fill="url(#paint4_linear_117_28557)"/>
<path d="M11.005 10.4255L7.56015 6.56494C5.25642 8.67166 3.41535 11.2456 2.15633 14.1198C0.897338 16.994 0.248521 20.1043 0.251967 23.249H5.38094C5.37989 20.8317 5.87999 18.4408 6.84883 16.2317C7.81768 14.0227 9.23366 12.0445 11.005 10.4255Z" fill="url(#paint5_linear_117_28557)"/>
<defs>
<linearGradient id="paint0_linear_117_28557" x1="7.79201" y1="38.5076" x2="2.05362" y2="22.1394" gradientUnits="userSpaceOnUse">
<stop offset="0.14" stop-color="#F1E813"/>
<stop offset="0.3" stop-color="#E6E418"/>
<stop offset="0.58" stop-color="#C9DA26"/>
<stop offset="0.89" stop-color="#A2CC39"/>
</linearGradient>
<linearGradient id="paint1_linear_117_28557" x1="8.22028" y1="8.2605" x2="22.702" y2="2.815" gradientUnits="userSpaceOnUse">
<stop offset="0.06" stop-color="#0FA7DF"/>
<stop offset="0.54" stop-color="#0098F8"/>
<stop offset="0.92" stop-color="#0290EA"/>
</linearGradient>
<linearGradient id="paint2_linear_117_28557" x1="21.0037" y1="42.6129" x2="37.3459" y2="38.97" gradientUnits="userSpaceOnUse">
<stop offset="0.12" stop-color="#A2CC39"/>
<stop offset="0.28" stop-color="#86C239"/>
<stop offset="0.87" stop-color="#219F38"/>
</linearGradient>
<linearGradient id="paint3_linear_117_28557" x1="21.3785" y1="2.49036" x2="35.3644" y2="6.74905" gradientUnits="userSpaceOnUse">
<stop offset="0.06" stop-color="#0290EA"/>
<stop offset="0.79" stop-color="#0C89CA"/>
</linearGradient>
<linearGradient id="paint4_linear_117_28557" x1="7.28074" y1="37.7125" x2="22.5182" y2="43.3316" gradientUnits="userSpaceOnUse">
<stop offset="0.13" stop-color="#F1E813"/>
<stop offset="0.3" stop-color="#EAE616"/>
<stop offset="0.53" stop-color="#D8DF1F"/>
<stop offset="0.8" stop-color="#BAD52D"/>
<stop offset="0.98" stop-color="#A2CC39"/>
</linearGradient>
<linearGradient id="paint5_linear_117_28557" x1="2.16269" y1="23.878" x2="8.40267" y2="7.86114" gradientUnits="userSpaceOnUse">
<stop offset="0.07" stop-color="#A2CC39"/>
<stop offset="0.26" stop-color="#81C45E"/>
<stop offset="0.92" stop-color="#0FA7DF"/>
</linearGradient>
</defs>
</svg>
