<svg width="14" height="14" viewBox="0 0 14 14" fill="none" xmlns="http://www.w3.org/2000/svg">
<path fill-rule="evenodd" clip-rule="evenodd" d="M7 14C10.866 14 14 10.866 14 7C14 3.13401 10.866 0 7 0C3.13401 0 0 3.13401 0 7C0 10.866 3.13401 14 7 14ZM6.38117 2.40119L3.36511 6.79221C3.21048 7.01734 3.37166 7.32359 3.64478 7.32359H5.86084C6.04822 7.32359 6.20012 7.47549 6.20012 7.66288V11.4732C6.20012 11.8002 6.6171 11.938 6.8119 11.6754L10.5985 6.5709C10.7646 6.34701 10.6048 6.02947 10.326 6.02947H7.33941C7.15203 6.02947 7.00012 5.87757 7.00012 5.69019V2.59328C7.00012 2.26001 6.56986 2.12648 6.38117 2.40119Z" fill="black"/>
<path fill-rule="evenodd" clip-rule="evenodd" d="M7 14C10.866 14 14 10.866 14 7C14 3.13401 10.866 0 7 0C3.13401 0 0 3.13401 0 7C0 10.866 3.13401 14 7 14ZM6.38117 2.40119L3.36511 6.79221C3.21048 7.01734 3.37166 7.32359 3.64478 7.32359H5.86084C6.04822 7.32359 6.20012 7.47549 6.20012 7.66288V11.4732C6.20012 11.8002 6.6171 11.938 6.8119 11.6754L10.5985 6.5709C10.7646 6.34701 10.6048 6.02947 10.326 6.02947H7.33941C7.15203 6.02947 7.00012 5.87757 7.00012 5.69019V2.59328C7.00012 2.26001 6.56986 2.12648 6.38117 2.40119Z" fill="white"/>
</svg>
