<svg width="21" height="17" viewBox="0 0 21 17" fill="none" xmlns="http://www.w3.org/2000/svg">
<path fill-rule="evenodd" clip-rule="evenodd" d="M2.23779 7.33196C7.56813 4.94042 11.1166 3.3513 12.8985 2.58035C17.9699 0.393346 19.036 0.0157338 19.7213 0C19.8736 0 20.2086 0.0314679 20.4371 0.220274C20.6198 0.377612 20.6655 0.582152 20.696 0.73949C20.7264 0.896828 20.7569 1.22724 20.7264 1.47898C20.4523 4.46841 19.2644 11.7217 18.6552 15.0573C18.3963 16.4733 17.8937 16.9453 17.4064 16.9925C16.3403 17.0869 15.5332 16.2688 14.5128 15.5765C12.8985 14.4908 11.9999 13.8143 10.4313 12.7444C8.61897 11.5172 9.79164 10.8406 10.8272 9.73924C11.1014 9.45603 15.7768 5.05056 15.8682 4.65721C15.8835 4.61001 15.8835 4.4212 15.7768 4.3268C15.6702 4.2324 15.5179 4.26387 15.3961 4.29533C15.2286 4.3268 12.67 6.08899 7.68997 9.56616C6.95895 10.0854 6.30408 10.3371 5.71013 10.3214C5.05526 10.3057 3.80644 9.94377 2.86221 9.6291C1.71999 9.25149 0.806219 9.04695 0.882367 8.38613C0.928056 8.03998 1.38494 7.69384 2.23779 7.33196Z" fill="#3154EB"/>
</svg>
